<svg xmlns="http://www.w3.org/2000/svg" width="1513" height="329" aria-hidden="true"><path fill="#d2f5ff" d="M1348.5 0a163.72 163.72 0 0 0-88.5 25.8 164.65 164.65 0 0 0-168.5-5.06A164.65 164.65 0 0 0 923 25.8a164.67 164.67 0 0 0-166.5-6.16A164.67 164.67 0 0 0 590 25.8a164.65 164.65 0 0 0-168.5-5.06A164.65 164.65 0 0 0 253 25.8a164.5 164.5 0 1 0 0 277.4 164.65 164.65 0 0 0 168.5 5.06A164.65 164.65 0 0 0 590 303.2a164.67 164.67 0 0 0 166.5 6.16A164.67 164.67 0 0 0 923 303.2a164.65 164.65 0 0 0 168.5 5.06 164.65 164.65 0 0 0 168.5-5.07A164.5 164.5 0 1 0 1348.5 0z"/></svg>
