<svg xmlns="http://www.w3.org/2000/svg" width="640.92" height="484.18"><circle cx="35.56" cy="35.27" r="34.93"/><circle cx="256.24" cy="34.93" r="34.93"/><path d="M362.47 469.78V97.2h179s99.4 1.1 99.4 106S542.62 312 542.62 312h-61.94l.87-42.56H510l21.74-.2c22.6-2.4 57.83-14.23 57.83-64.3 0-73.73-76.36-64.5-76.36-64.5H413.17v329.12zM114.77 96.57L85 141.83l-35.25.22v180.37c0 85.4 37.9 121.6 88.8 121.6 56.55 0 92.75-37.33 92.75-121.6V96.77h49.76V319c0 117.07-61.64 165.15-144.2 165.15C58.8 484.18 0 439.5 0 321.3V96.76z"/></svg>
