<svg xmlns="http://www.w3.org/2000/svg" width="256" height="256" preserveAspectRatio="xMidYMid"><desc>UP Instagram Page</desc><path fill="#fff" d="M128 23.06c34.18 0 38.23.13 51.72.75 12.48.6 19.26 2.68 23.77 4.44 5.94 2.32 10.2 5.1 14.7 9.57 4.5 4.48 7.24 8.75 9.56 14.7 1.76 4.53 3.84 11.3 4.4 23.8.63 13.5.76 17.53.76 51.7s-.13 38.24-.75 51.73c-.58 12.48-2.66 19.26-4.42 23.77-2.32 5.96-5.1 10.22-9.57 14.7-4.48 4.5-8.75 7.25-14.7 9.57-4.53 1.76-11.3 3.84-23.8 4.4-13.5.63-17.53.76-51.7.76s-38.24-.13-51.73-.75c-12.48-.58-19.26-2.66-23.77-4.42-5.97-2.32-10.23-5.1-14.7-9.57-4.5-4.5-7.26-8.75-9.58-14.7-1.76-4.54-3.84-11.3-4.4-23.8-.63-13.5-.76-17.54-.76-51.7s.13-38.25.75-51.74C24.4 63.8 26.47 57 28.23 52.5c2.32-5.96 5.1-10.23 9.57-14.7 4.48-4.5 8.74-7.26 14.7-9.58 4.53-1.76 11.3-3.84 23.8-4.4 13.5-.63 17.53-.76 51.7-.76M128 0C93.24 0 88.88.15 75.23.77 61.6 1.4 52.3 3.57 44.15 6.72 35.75 10 28.6 14.37 21.48 21.48c-7.1 7.12-11.5 14.26-14.76 22.68C3.56 52.3 1.4 61.6.77 75.23.15 88.88 0 93.23 0 128c0 34.76.15 39.12.77 52.77.62 13.63 2.8 22.93 5.95 31.08 3.27 8.4 7.65 15.55 14.76 22.67 7.12 7.1 14.26 11.5 22.67 14.76 8.15 3.16 17.45 5.33 31.08 5.95 13.65.62 18 .77 52.77.77 34.76 0 39.12-.15 52.77-.77 13.63-.62 22.93-2.8 31.07-5.95 8.42-3.27 15.56-7.65 22.68-14.76 7.1-7.12 11.5-14.26 14.76-22.67 3.16-8.15 5.33-17.45 5.95-31.08.62-13.65.77-18 .77-52.77 0-34.76-.15-39.12-.77-52.77-.62-13.63-2.8-22.93-5.95-31.07-3.27-8.42-7.65-15.56-14.76-22.68-7.12-7.1-14.26-11.5-22.68-14.76C203.7 3.56 194.4 1.4 180.77.77 167.12.15 162.77 0 128 0zm0 62.27c-36.3 0-65.73 29.43-65.73 65.73 0 36.3 29.43 65.73 65.73 65.73 36.3 0 65.73-29.43 65.73-65.73 0-36.3-29.43-65.73-65.73-65.73zm0 108.4c-23.56 0-42.67-19.1-42.67-42.67 0-23.56 19.1-42.67 42.67-42.67 23.56 0 42.67 19.1 42.67 42.67 0 23.56-19.1 42.67-42.67 42.67zm83.7-111c0 8.5-6.9 15.36-15.37 15.36-8.5 0-15.36-6.87-15.36-15.36 0-8.48 6.87-15.36 15.36-15.36 8.48 0 15.36 6.9 15.36 15.4z"/></svg>