<svg xmlns="http://www.w3.org/2000/svg" width="338" height="338"><title>Recurso 18cloth</title><path fill="#fff" stroke="#000" stroke-miterlimit="10" d="M.5.5h337v337H.5z"/><circle cx="58.05" cy="80.53" r="14.94"/><circle cx="152.45" cy="80.38" r="14.94"/><path d="M197.9 266.4V107h76.6s42.5.47 42.5 45.34-42 46.57-42 46.57h-26.53l.37-18.2H261l9.3-.08c9.67-1 24.74-6.1 24.74-27.5 0-31.55-32.67-27.6-32.67-27.6h-42.8v140.8zM91.93 106.75L79.2 126.1l-15.08.1v77.17c0 36.53 16.2 52 38 52 24.2 0 39.68-16 39.68-52v-96.54h21.3v95.1c0 50.07-26.38 70.63-61.7 70.63-33.4 0-58.56-19.1-58.56-69.68v-96z"/></svg>