<svg xmlns="http://www.w3.org/2000/svg" width="274.18" height="207.13" viewBox="0 0 274.18 207.13"><title>Recurso 23cloth</title><circle cx="15.21" cy="15.09" r="14.94" fill="#fff"/><circle cx="109.62" cy="14.94" r="14.94" fill="#fff"/><path d="M155.06,201V41.58h76.6s42.52.47,42.52,45.34-42.05,46.56-42.05,46.56h-26.5l.37-18.21h12.17l9.3-.09c9.67-1,24.74-6.09,24.74-27.51,0-31.54-32.66-27.6-32.66-27.6h-42.8v140.8Z" fill="#fff"/><path d="M49.1,41.31,36.37,60.68l-15.08.09v77.16c0,36.53,16.21,52,38,52,24.19,0,39.67-16,39.67-52V41.4h21.3v95.08c0,50.08-26.38,70.65-61.7,70.65C25.16,207.13,0,188,0,137.45v-96Z" fill="#fff"/></svg>