<svg xmlns="http://www.w3.org/2000/svg" viewBox="0 0 101.69 101.69"><defs><style>.cls-1{fill:#4a98c1;}.cls-2{fill:#fff;}.cls-3{fill:#e0a32d;}</style></defs><title>Recurso 13ldpi</title><g id="Capa_2"><g id="Argentina"><path d="M51.07 0H0v101.7H101.7V0H51.06z" class="cls-1"/><path d="M56.2 30.28h23.85a14.56 14.56 0 0 1 10.72 4.17q4.17 4.2 4.23 11.63T91.07 57.4q-3.87 3.87-11 3.87h-17v20H56.2zm6.86 5.66V55.6h15.5a8.84 8.84 0 0 0 6.55-2.37 9.66 9.66 0 0 0 2.7-7.15q0-5.07-2.4-7.45a9.28 9.28 0 0 0-6.84-2.7zM7 30.2h6.85V66a9.3 9.3 0 0 0 2.68 6.86q3.28 3.27 9.54 3.27t9.54-3.27A9.3 9.3 0 0 0 38.3 66V30.2h6.86v36.07A14.53 14.53 0 0 1 41 77q-4.77 4.77-14.9 4.76T11.2 77A14.53 14.53 0 0 1 7 66.27z" class="cls-2"/><path d="M15.38 19.85h6.85v6.56h-6.85zM29.7 19.85h6.84v6.56H29.7z" class="cls-3"/></g></g></svg>