<svg xmlns="http://www.w3.org/2000/svg" viewBox="0 0 113.65 113.65"><defs><style>.cls-1{fill:#fff;}.cls-2{fill:#269343;}.cls-3{fill:#f4d72a;}.cls-4{fill:#002171;}</style></defs><title>Recurso 8ldpi</title><g id="Capa_2"><g id="Brazil"><path d="M17.2 22.2h7.65v7.32H17.2zM33.18 22.2h7.66v7.32h-7.66z" class="cls-1"/><path d="M0 0h57.08v113.65H0z" class="cls-2"/><path d="M57.08 0h56.57v113.65H57.08zM7.53 33.85h7.66v40a10.37 10.37 0 0 0 3 7.66q3.65 3.7 10.65 3.68T39.5 81.5a10.36 10.36 0 0 0 3-7.65v-40h7.68v40.3a16.2 16.2 0 0 1-4.67 12q-5.3 5.33-16.64 5.32T12.2 86.13a16.2 16.2 0 0 1-4.67-12zm9.66-4.33V22.2h7.65v7.32zm16 0V22.2h7.65v7.32z" class="cls-3"/><path d="M62.82 33.85h26.65a16.25 16.25 0 0 1 12 4.66q4.65 4.67 4.66 13t-4.33 12.66q-4.33 4.34-12.32 4.33h-19v22.3h-7.66zm7.66 6.32v22H87.8a9.9 9.9 0 0 0 7.33-2.67 10.8 10.8 0 0 0 3-8c0-3.78-.9-6.55-2.66-8.33a10.37 10.37 0 0 0-7.66-3z" class="cls-4"/></g></g></svg>