<svg xmlns="http://www.w3.org/2000/svg" width="40.17mm" height="40.17mm" viewBox="0 0 113.85 113.85"><path fill="#c2303a" d="M57.18 0H0v113.86h113.86V0H57.18z"/><circle cx="13.47" cy="24.65" r="5.45" fill="#fff"/><circle cx="47.91" cy="24.6" r="5.45" fill="#fff"/><path fill="#fff" d="M64.48 92.46V34.32h28s15.5.17 15.5 16.54-15.33 17-15.33 17h-9.72l.14-6.64h7.84c3.53-.38 9-2.23 9-10C99.93 39.62 88 41.06 88 41.06H72.4v51.37zM25.83 34.22l-4.65 7.06h-5.5v28.18c0 13.33 5.92 19 13.86 19 8.83 0 14.48-5.82 14.48-19v-35.2h7.76v34.68c0 18.27-9.62 25.77-22.5 25.77-12.18 0-21.36-7-21.36-25.4v-35z"/></svg>