<svg xmlns="http://www.w3.org/2000/svg" viewBox="0 0 115.84 115.84"><defs><style>.cls-1{fill:#c2303a;}.cls-2{fill:#fff;}</style></defs><title>Recurso 14ldpi</title><g id="Capa_2"><g id="canada"><path d="M58.18 0H0v115.84h115.84V0H58.18z" class="cls-1"/><path d="M64 34.5h27.2a16.55 16.55 0 0 1 12.2 4.75q4.76 4.76 4.76 13.24t-4.4 12.9q-4.42 4.4-12.57 4.4H71.83v22.75H64zm7.84 6.5v22.4H89.5a10.1 10.1 0 0 0 7.5-2.76 11 11 0 0 0 3-8.15c0-3.86-.9-6.68-2.72-8.5a10.6 10.6 0 0 0-7.8-3zM8 34.42h7.8v40.73A10.56 10.56 0 0 0 18.86 83q3.74 3.7 10.86 3.7T40.58 83a10.56 10.56 0 0 0 3.06-7.8V34.4h7.8V75.5a16.56 16.56 0 0 1-4.74 12.2q-5.45 5.46-17 5.45t-17-5.44A16.52 16.52 0 0 1 8 75.5zM17.52 22.62h7.8v7.47h-7.8zM33.82 22.62h7.8v7.47h-7.8z" class="cls-2"/></g></g></svg>