<svg xmlns="http://www.w3.org/2000/svg" viewBox="0 0 114.85 114.85"><defs><style>.cls-1{fill:#fff;stroke:#201813;stroke-miterlimit:10;}.cls-2{fill:#c12c34;}</style></defs><title>Recurso 11ldpi</title><g id="Capa_2"><g id="Japon"><path d="M57.68.5H.5v113.86h113.86V.5H57.68z" class="cls-1"/><path d="M8.05 34.4h7.67v40a10.4 10.4 0 0 0 3 7.7q3.68 3.66 10.68 3.66t10.68-3.67a10.4 10.4 0 0 0 3-7.7v-40h7.67V74.8a16.23 16.23 0 0 1-4.67 12q-5.34 5.34-16.68 5.34T12.72 86.8a16.23 16.23 0 0 1-4.67-12zm9.67-4.33v-7.34h7.68v7.34zm16 0v-7.34h7.67v7.34zM63.43 34.4h26.7a16.27 16.27 0 0 1 12 4.68q4.66 4.66 4.66 13t-4.35 12.68q-4.3 4.34-12.33 4.34h-19v22.36h-7.7zm7.68 6.35v22h17.36a9.94 9.94 0 0 0 7.34-2.65 10.84 10.84 0 0 0 3-8q0-5.67-2.67-8.34a10.4 10.4 0 0 0-7.67-3zM17.72 22.73h7.67v7.34H17.7zM33.74 22.73h7.67v7.34h-7.66z" class="cls-2"/></g></g></svg>