<svg xmlns="http://www.w3.org/2000/svg" width="40.52mm" height="40.52mm" viewBox="0 0 114.85 114.85"><path fill="#fff" stroke="#201813" stroke-miterlimit="10" d="M57.68.5H.5v113.86h113.86V.5H57.68z"/><circle cx="13.97" cy="25.15" r="5.45" fill="#c12c34"/><circle cx="48.41" cy="25.1" r="5.45" fill="#c12c34"/><path fill="#c12c34" d="M65 93V34.82h28s15.5.17 15.5 16.54-15.33 17-15.33 17h-9.74l.14-6.64h7.83c3.52-.38 9-2.23 9-10 0-11.5-11.93-10.07-11.93-10.07H72.9v51.28zM26.33 34.72l-4.65 7.06h-5.5V70c0 13.33 5.92 19 13.86 19 8.83 0 14.48-5.82 14.48-19V34.75h7.76v34.7c0 18.26-9.62 25.76-22.5 25.76-12.18 0-21.36-7-21.36-25.4v-35z"/></svg>