<svg xmlns="http://www.w3.org/2000/svg" viewBox="0 0 116.45 116.45"><defs><style>.cls-1{fill:#070308;}.cls-2{fill:#02603e;}.cls-3{fill:#c12b33;}.cls-4{fill:#fff;}.cls-5{fill:#e7b83c;}.cls-6{fill:#af681f;}</style></defs><title>Recurso 17ldpi</title><g id="Capa_2"><g id="Mexico"><path d="M7.35 34.73h7.9v41.2a10.7 10.7 0 0 0 3.1 7.9q3.77 3.78 11 3.78t11-3.77a10.7 10.7 0 0 0 3.08-7.9v-41.2h7.87v41.55a16.76 16.76 0 0 1-4.8 12.36q-5.5 5.5-17.17 5.5t-17.17-5.5a16.73 16.73 0 0 1-4.8-12.36z" class="cls-1"/><path d="M0 0h59.02v116.45H0z" class="cls-2"/><path d="M58.48 0h57.97v116.45H58.48z" class="cls-3"/><path d="M64.37 34.68h27.3A16.62 16.62 0 0 1 104 39.46q4.78 4.77 4.78 13.3c0 5.7-1.48 10-4.44 13s-7.16 4.45-12.62 4.45h-19.5V93h-7.85zm7.85 6.48V63.7H90a10.16 10.16 0 0 0 7.47-2.7 11.07 11.07 0 0 0 3.07-8.2c0-3.86-.9-6.7-2.73-8.53a10.67 10.67 0 0 0-7.8-3.1zM8 34.6h7.85v40.95A10.62 10.62 0 0 0 19 83.4q3.75 3.75 10.92 3.75c4.78 0 8.4-1.25 10.92-3.75a10.62 10.62 0 0 0 3.07-7.85V34.6h7.86v41.3a16.62 16.62 0 0 1-4.78 12.27q-5.46 5.47-17.06 5.47t-17.1-5.47A16.58 16.58 0 0 1 8 75.9z" class="cls-4"/><path d="M16.83 20.36h7.03v6.72h-7.03z" class="cls-5"/><path d="M34.64 20.36h7.03v6.72h-7.03z" class="cls-6"/></g></g></svg>