<svg xmlns="http://www.w3.org/2000/svg" viewBox="0 0 116.31 116.31"><defs><style>.cls-1{fill:#070308;}.cls-2{fill:#343267;}.cls-3{fill:#b62131;}.cls-4{fill:#fff;}</style></defs><title>Recurso 16ldpi</title><g id="Capa_2"><g id="USA"><path d="M7.35 34.7h7.88v41.14a10.67 10.67 0 0 0 3.1 7.9q3.75 3.77 11 3.76t11-3.77a10.66 10.66 0 0 0 3.07-7.9V34.7h7.9v41.5a16.7 16.7 0 0 1-4.8 12.33Q41 94 29.3 94t-17.15-5.47a16.66 16.66 0 0 1-4.8-12.34z" class="cls-1"/><path d="M0 0h58.64v116.3H0z" class="cls-2"/><path d="M58.42 0h57.9v116.3h-57.9z" class="cls-3"/><path d="M64.3 34.64h27.26a16.6 16.6 0 0 1 12.27 4.77q4.77 4.78 4.77 13.3t-4.43 13q-4.44 4.44-12.6 4.44H72.12v22.78H64.3zm7.83 6.47v22.5h17.73a10.13 10.13 0 0 0 7.5-2.72 11 11 0 0 0 3.06-8.18q0-5.8-2.73-8.52a10.63 10.63 0 0 0-7.84-3.07zM8 34.56h7.84v40.9a10.6 10.6 0 0 0 3.07 7.84q3.74 3.75 10.9 3.75t10.95-3.75a10.65 10.65 0 0 0 3.07-7.84v-40.9h7.84V75.8a16.62 16.62 0 0 1-4.78 12.27q-5.44 5.46-17 5.45t-17-5.45A16.6 16.6 0 0 1 8 75.8zM17.6 22.7h7.84v7.5H17.6zM33.96 22.7h7.84v7.5h-7.84z" class="cls-4"/></g></g></svg>