<svg xmlns="http://www.w3.org/2000/svg" width="512" height="512"><path fill="#45a6df" d="M254.03 142.2c.4-2.96 1.37-4.07 4.55-3.64q63.7 8.64 127.42 17c4.4.58 3.87 3.14 3.47 6.12q-5 37.05-9.92 74.1c-2.27 17-4.47 34-6.92 51-.26 1.77-1.2 8.53-1.2 8.53l-.68 5-1 7.9S284.6 296.54 249 291.83c-1.66-.23-11.7-1.37-14.5-1.74m71.53-23.8c28.83 3.95 54.88-15.6 58.83-44.14a52.12 52.12 0 0 0-44.2-58.94c-28.18-4.08-55.08 16.12-59 44.3a52.12 52.12 0 0 0 44.37 58.8zm-50.58-132.5c1.58-5.25 2.82-10.38 4.72-15.25.9-2.3 2.9-3.87 6.2-2.75 2 .67 4.47-.46 6.65-.17q55.4 7.3 110.8 14.78c1.25.2 2.8.1 3.65.83 1.2 1 2.9 3.5 2.58 3.9-3.13 3.88-1.8 8.3-2.2 12.55-.27 2.7-1.92 4.2-5.3 3.75q-61.74-8.42-123.5-16.6a28 28 0 0 1-3.6-1.02zm38.64 0c6.42.86 12.9 1.6 19.3 2.63 3.36.53 4.5-.8 4.9-4s.17-5.17-3.6-5.64q-19.1-2.36-38.2-5.1c-3.5-.5-4.84.85-5.3 4.23s.46 5 4 5.4c6.3.66 12.6 1.63 18.88 2.47zm60.2-2.27c-2.1 2.34-4.1 3.6-4.26 5-.13 1.25 1.86 3.88 2.83 3.84 1.56-.07 3.92-1.57 4.32-2.94s-1.44-3.08-2.9-5.88zm10.1 12.42c2.15-2.44 4.14-3.7 4.32-5.18.14-1.2-1.78-3.58-3-3.74s-3.85 1.5-4.06 2.7c-.26 1.45 1.32 3.25 2.73 6.22zm-21.7-13.83c-2 2.12-4.13 3.37-4.1 4.53.1 1.53 1.85 3 2.88 4.5 1.4-1.17 3.48-2.1 4-3.58.32-1.1-1.4-2.87-2.78-5.45zm-77.05 78.38a57.75 57.75 0 0 1 .94-6.6c.35-1.46 1.03-3.7 2.05-4 5.05-1.52 6.42-6.25 9.15-9.73 11.53-14.67 30.67-21.3 47.45-16.33 18.35 5.4 30.7 20.7 32.35 39.86 2.12 24.2-17.42 46.5-41.72 47.6a44.7 44.7 0 0 1-45.7-33.4c-.27-1.05-.34-2.65-1.04-3.05-6.35-3.6-4.1-9.16-3.5-14.36zm50-32.8c-13.2-1.17-26.07 4.73-35.18 18.3-1.05 1.56-.76 4-1 6.06-.9 6.67-1.75 13.35-2.62 20-.27 2-1.25 4.3-.72 6.1a38.85 38.85 0 0 0 42.47 27.44c19.8-2.95 33.9-19.33 33.75-39.18-.2-19.42-14.5-35.7-36.75-38.72zM283 231.75c7.43 3.27 14.63 7.32 22.35 9.5a26.6 26.6 0 0 0 15.16-.78c11.68-4.1 14.1-16.92 6.1-26.3a38.68 38.68 0 0 1-7.4-12.83c-1.6-5 1.93-10.37 6.52-12.44a11.65 11.65 0 0 1 13.5 2.82c9.44 10.84 11.36 23.2 6.2 36.4-5.07 13-15.24 20.23-28.94 21.43-14.13 1.24-25.2-4.76-32.8-16.85a5.3 5.3 0 0 1-.47-1.32c-.05-.1.1-.25-.2.37zm25.47 143.15c-5.48 2.7-10.8 6-16.5 8a88.92 88.92 0 0 1-18.73 4.6c-6.1.77-11.72-1.6-16.54-5.66-7.18-6.06-8-6-15.64-.57-9.9 7.07-19.84 14.06-29.66 21.24-2.63 1.95-4.57 2.3-7.5.24-6.3-4.47-13.35-4.8-20.4-1.83-2.72 1.15-4.38 1.07-6.25-1.55q-45.18-63.56-90.52-127a14.34 14.34 0 0 1-.9-1.92c2.77-.1 5.18-.24 7.6-.25 42.57-.24 82.06 9.8 116.82 35.35a169.93 169.93 0 0 1 51.47 60.7c1.67 3.3.92 7.7 5.82 9.27a22.94 22.94 0 0 0 17-1c6.78-3.1 13.27-6.87 19.8-10.52 2.65-1.48 5.44-3.85 8-1.07 1.6 1.75 1.77 4.8 2.58 7.28zm-113.44-12c3 3.22 5.52 6.3 8.42 9s6.7 4.06 10.44 1.48a136.45 136.45 0 0 0 14.27-10.83c6.64-6 6.84-11 .53-17.48-8.52-8.8-17.15-17.58-26.37-25.65-10.64-9.3-23-15.17-37.68-14.24-5.15.33-7 2.5-5.6 7.45a58.06 58.06 0 0 0 4.77 10.92c1.5 2.85 3.94 5.06 1.9 9-.74 1.46.5 4.54 1.67 6.3 4.8 7.18 9.93 14.15 15 21.18 3.94 5.52 6.4 6.1 12.62 2.9zM67.87 270.2a31.88 31.88 0 0 0 4.88.06c3.72-.5 6.38.9 8.52 3.9q44.8 62.82 89.6 125.6a24.18 24.18 0 0 1 1.73 3.42c-7.23 3.36-11.75 2.34-15.86-3.42Q112.6 338 68.6 276.2a31.2 31.2 0 0 1-2.33-4.84zm101.78 6.74c4.3-4.88 8.86-5.7 14.83-2.92s8.23 6.65 7.4 12.64a31.1 31.1 0 0 1-3.27-1.05c-6.3-2.83-12.55-5.72-18.94-8.65zm8.6 70.6c-2.6-3.64-5.52-7.12-7.64-11-.77-1.45.35-4 .63-6 0-.1.25-.2.38-.3 7.7-6.57 8.6-6.46 14.47 1.73 4.06 5.68 8 11.44 12.2 17 2.26 3 2.16 5-1.06 7.4-8.33 6.06-8.24 6.18-14.3-2.3z"/><path fill="#333" d="M256 0C114.56 0 0 114.56 0 256s114.56 256 256 256 256-114.56 256-256S397.44 0 256 0zm0 460.8c-113.15 0-204.8-91.65-204.8-204.8a204 204 0 0 1 43.14-125.45l287.1 287.1A204 204 0 0 1 256 460.8zm161.66-79.36L130.6 94.34A204 204 0 0 1 256 51.2c113.15 0 204.8 91.65 204.8 204.8a204 204 0 0 1-43.14 125.44z"/></svg>