<svg xmlns="http://www.w3.org/2000/svg" width="559.77" height="580.18"><title>Recurso 4cloth</title><path fill="#4c4cff" d="M24.3 8.53h16.36V125H24.3zm11.07 100.94h26.36q12.9 0 20-6.7t7.1-18.85v-34.3q0-12.17-7.1-18.86t-20-6.7H35.37V8.54h25.88q14 0 24 4.88a34.1 34.1 0 0 1 15.15 14.27q5.2 9.38 5.2 22.6v33q0 13.23-5.2 22.6a34.08 34.08 0 0 1-15.2 14.26q-10 4.9-24 4.88H35.38zM132 8.26h16.37V125H132zm7.15 51.84H179a15.27 15.27 0 0 0 8.26-2.25 14.75 14.75 0 0 0 5.58-6.38 21.93 21.93 0 0 0 2-9.5 21.93 21.93 0 0 0-2-9.52 14.92 14.92 0 0 0-5.54-6.38 15.24 15.24 0 0 0-8.3-2.25h-39.8V8.26h39.16a36.6 36.6 0 0 1 17.77 4.17A29.26 29.26 0 0 1 208 24.27 36.1 36.1 0 0 1 212.18 42a35.87 35.87 0 0 1-4.25 17.7A29.54 29.54 0 0 1 196 71.5a36.44 36.44 0 0 1-17.7 4.16h-39.14zm31.77 11.95l16.3-3.7L217.07 125h-19.42zM239.12 8.53h16.34V125h-16.34zm7.93 0H314v15.54h-66.9zm0 50.87h58.1v15.54h-58.1zm0 50.07H314V125h-66.9zM363.78 126.22l-7.53-1.6A58.8 58.8 0 0 1 330 111.8l10.18-12.5a46 46 0 0 0 14.63 8.7 51 51 0 0 0 17.4 2.88q12.65 0 19.62-4.68a15.07 15.07 0 0 0 7-13.26v-.08q0-6.1-3.16-9.66a19 19 0 0 0-8.18-5.28 90.2 90.2 0 0 0-12.93-3.17 1.78 1.78 0 0 0-.53-.08 1.5 1.5 0 0 1-.52-.08l-1.2-.25a123.37 123.37 0 0 1-19-4.53 26.77 26.77 0 0 1-12.53-9.2q-5.22-6.7-5.2-19v-.1q0-10.8 4.84-18.45a30.42 30.42 0 0 1 14.15-11.66q9.28-4 22.35-4a55.8 55.8 0 0 1 12.3 1.38 60.37 60.37 0 0 1 11.93 4 68.8 68.8 0 0 1 11.58 6.77l-9.28 13a54.55 54.55 0 0 0-13.26-7.33 38 38 0 0 0-13.26-2.44q-11.94 0-18.55 4.76T351.68 41v.08q0 6 3.4 9.46a20.62 20.62 0 0 0 8.5 5.08A127.54 127.54 0 0 0 377.72 59l.6.12.6.12.88.16.88.16a96.12 96.12 0 0 1 17.67 5.13 27.48 27.48 0 0 1 11.86 9.56q4.8 6.62 4.8 18.07v.16q0 10.64-5 18.2a31.45 31.45 0 0 1-14.62 11.55q-9.58 4-23.12 4zM461.6 126.22l-7.53-1.6a58.8 58.8 0 0 1-26.28-12.82L438 99.3a46 46 0 0 0 14.63 8.7 51 51 0 0 0 17.37 2.83q12.66 0 19.63-4.68a15.07 15.07 0 0 0 7-13.26v-.1q0-6.08-3.16-9.65a19 19 0 0 0-8.17-5.28 90.7 90.7 0 0 0-12.94-3.17 1.77 1.77 0 0 0-.52-.08 1.46 1.46 0 0 1-.52-.08l-1.2-.24a122.92 122.92 0 0 1-19-4.53 26.75 26.75 0 0 1-12.55-9.2q-5.2-6.7-5.2-19v-.1q0-10.8 4.84-18.45a30.42 30.42 0 0 1 14.15-11.66q9.3-4 22.35-4A55.74 55.74 0 0 1 487 8.7a60.68 60.68 0 0 1 11.94 4 69.12 69.12 0 0 1 11.57 6.76l-9.28 13a54.37 54.37 0 0 0-13.26-7.33 38 38 0 0 0-13.26-2.44q-11.94 0-18.55 4.75T449.5 41v.08q0 6 3.4 9.46a20.62 20.62 0 0 0 8.5 5.08A128.1 128.1 0 0 0 475.54 59l.6.12.6.12.88.16.9.16a96.23 96.23 0 0 1 17.65 5.13A27.48 27.48 0 0 1 508 74.25q4.77 6.6 4.77 18.07v.16q0 10.64-5 18.2a31.45 31.45 0 0 1-14.62 11.55q-9.58 4-23.12 4z"/><path fill="#2e2e6b" d="M30.58 1.2h16.35v116.5H30.58zm11.06 101H68q12.9 0 20-6.7t7.1-18.86V42.3q0-12.18-7.1-18.87t-20-6.7H41.64V1.2h25.88q14 0 24 4.9a34.06 34.06 0 0 1 15.14 14.25q5.2 9.38 5.2 22.6V76q0 13.22-5.2 22.6a34 34 0 0 1-15.23 14.2q-10 4.9-24 4.9h-25.8zM138.28.93h16.37V117.7h-16.37zm7.14 51.84h39.8a15.3 15.3 0 0 0 8.27-2.25 14.73 14.73 0 0 0 5.57-6.37 21.93 21.93 0 0 0 2-9.5 21.87 21.87 0 0 0-2-9.52 14.86 14.86 0 0 0-5.54-6.38 15.24 15.24 0 0 0-8.3-2.25h-39.8V.93h39.15a36.6 36.6 0 0 1 17.78 4.17 29.32 29.32 0 0 1 11.88 11.84 36.25 36.25 0 0 1 4.2 17.7 35.92 35.92 0 0 1-4.24 17.7 29.54 29.54 0 0 1-11.92 11.83 36.45 36.45 0 0 1-17.7 4.17h-39.16zm31.78 12L193.5 61l29.84 56.65h-19.42zM245.4 1.2h16.33v116.5H245.4zm7.92 0h66.9v15.54h-66.9zm0 50.88h58.08v15.54h-58.08zm0 50.07h66.9v15.54h-66.9zM370.05 118.9l-7.53-1.6a60.1 60.1 0 0 1-14.06-4.82 58.76 58.76 0 0 1-12.22-8L346.4 92a46.1 46.1 0 0 0 14.68 8.66 51 51 0 0 0 17.38 2.88q12.66 0 19.63-4.7a15 15 0 0 0 7-13.25v-.1q0-6.07-3.18-9.64a18.87 18.87 0 0 0-8.17-5.3 90.52 90.52 0 0 0-12.94-3.15 1.46 1.46 0 0 0-.5-.07 1.77 1.77 0 0 1-.53-.08l-1.2-.24a125.74 125.74 0 0 1-19-4.52A26.8 26.8 0 0 1 347 53.24q-5.2-6.7-5.2-19v-.08q0-10.82 4.84-18.47A30.45 30.45 0 0 1 360.74 4q9.3-4 22.37-4a55.64 55.64 0 0 1 12.3 1.36 60.93 60.93 0 0 1 11.94 4.05 68.13 68.13 0 0 1 11.58 6.78l-9.3 13a54.32 54.32 0 0 0-13.25-7.33 38 38 0 0 0-13.26-2.45q-11.93 0-18.54 4.77T358 33.65v.08c0 4 1.13 7.16 3.4 9.45a20.4 20.4 0 0 0 8.5 5.1 125.66 125.66 0 0 0 14.1 3.4 3.54 3.54 0 0 0 .6.1 5 5 0 0 1 .6.14l.88.16c.32.05.6.1.88.16a97.2 97.2 0 0 1 17.67 5.12 27.55 27.55 0 0 1 11.85 9.58q4.77 6.6 4.77 18.06v.16q0 10.66-5.05 18.23a31.46 31.46 0 0 1-14.62 11.53q-9.57 4-23.1 4zM467.87 118.9l-7.53-1.6a60.1 60.1 0 0 1-14.06-4.82 58.76 58.76 0 0 1-12.22-8L444.24 92a46.06 46.06 0 0 0 14.66 8.66 51 51 0 0 0 17.38 2.88q12.66 0 19.63-4.7a15 15 0 0 0 7-13.25v-.1q0-6.07-3.15-9.64a18.9 18.9 0 0 0-8.18-5.3 90.34 90.34 0 0 0-12.93-3.15 1.5 1.5 0 0 0-.53-.07 1.77 1.77 0 0 1-.5-.08l-1.2-.24a125.74 125.74 0 0 1-19-4.52 26.77 26.77 0 0 1-12.54-9.2q-5.22-6.7-5.2-19v-.1q0-10.8 4.84-18.46A30.4 30.4 0 0 1 458.58 4q9.3-4 22.35-4a55.8 55.8 0 0 1 12.3 1.36 61.07 61.07 0 0 1 11.93 4.05 68.13 68.13 0 0 1 11.58 6.78l-9.3 13a54.55 54.55 0 0 0-13.25-7.33 38 38 0 0 0-13.27-2.45q-11.94 0-18.55 4.77t-6.6 13.5v.08c0 4 1.13 7.16 3.4 9.45a20.53 20.53 0 0 0 8.5 5.1 125.66 125.66 0 0 0 14.13 3.4 3.54 3.54 0 0 0 .6.1 5 5 0 0 1 .6.14l.9.16c.3.05.6.1.87.16a97 97 0 0 1 17.67 5.12 27.58 27.58 0 0 1 11.86 9.58q4.76 6.6 4.76 18.06v.16q0 10.66-5 18.23a31.5 31.5 0 0 1-14.62 11.55q-9.58 4-23.12 4z"/><circle cx="29.02" cy="213.84" r="28.51" fill="#2e2e6b"/><circle cx="209.11" cy="213.56" r="28.51" fill="#2e2e6b"/><path fill="#2e2e6b" d="M319.8 568.43v-304h146.12s81.12.9 81.12 86.5-80.22 88.8-80.22 88.8h-50.54l.7-34.74h23.22l17.74-.17c18.45-2 47.2-11.6 47.2-52.48 0-60.17-62.32-52.65-62.32-52.65h-81.65v268.6zM93.66 263.86L69.38 300.8l-28.76.2v147.2c0 69.7 30.92 99.23 72.46 99.23 46.15 0 75.7-30.46 75.7-99.23V264h40.6v181.4c0 95.55-50.3 134.78-117.7 134.78C48 580.18 0 543.72 0 447.25V264z"/><circle cx="41.75" cy="201.84" r="28.51" fill="#4c4cff"/><circle cx="221.85" cy="201.56" r="28.51" fill="#4c4cff"/><path fill="#4c4cff" d="M332.54 556.43v-304h146.1s81.13.9 81.13 86.5-80.22 88.8-80.22 88.8H429l.7-34.74h23.22l17.75-.17c18.44-2 47.2-11.6 47.2-52.48 0-60.17-62.32-52.65-62.32-52.65H373.9v268.6zM106.4 251.86L82.1 288.8l-28.77.2v147.2c0 69.7 30.92 99.23 72.46 99.23 46.17 0 75.7-30.46 75.7-99.23V252h40.62v181.4c0 95.55-50.3 134.78-117.7 134.78-63.7 0-111.7-36.46-111.7-132.93V252z"/></svg>
