<svg xmlns="http://www.w3.org/2000/svg" width="374.94" height="326.36"><title>Recurso 12cloth</title><path fill="#002850" d="M259.73 91l-6.1-1.3a52.84 52.84 0 0 1-11.47-3.76 51.77 51.77 0 0 1-10.32-6.7l8.52-13.13a37.76 37.76 0 0 0 11.9 6.54 42.78 42.78 0 0 0 13.85 2.3c5.48 0 9.74-.93 12.76-2.8a8.77 8.77 0 0 0 4.54-7.87v-.07a7.8 7.8 0 0 0-2-5.64 12 12 0 0 0-5.28-3.07 63.8 63.8 0 0 0-8.34-1.8 1.05 1.05 0 0 0-.33-.05 1.06 1.06 0 0 1-.34-.06l-1.34-.2a82.93 82.93 0 0 1-14.84-3.52 21.83 21.83 0 0 1-10-7.42q-4.1-5.3-4.1-15v-.06a27.2 27.2 0 0 1 3.85-14.78 24.44 24.44 0 0 1 11.22-9.35Q259.24 0 269.65 0a45.6 45.6 0 0 1 9.78 1.1 53 53 0 0 1 9.78 3.2 54.66 54.66 0 0 1 9.08 5l-8.42 12.9c-3.43-2.36-5.7-2.9-9.45-4.2a32.6 32.6 0 0 0-10.77-2q-7.73 0-12 2.55a7.94 7.94 0 0 0-4.23 7.14v.05a8.3 8.3 0 0 0 2.2 6.1 13.2 13.2 0 0 0 5.46 3.3 86.56 86.56 0 0 0 9.13 2.2 3.86 3.86 0 0 0 .5.08l.48.1c.25 0 .5.1.7.15s.47.1.72.15a75.25 75.25 0 0 1 14.13 4 22.07 22.07 0 0 1 9.48 7.6q3.8 5.25 3.8 14.32V64a26 26 0 0 1-4 14.6 24.88 24.88 0 0 1-11.62 9.25Q276.84 91 266.1 91zM334.6 91l-6.1-1.3a52.84 52.84 0 0 1-11.5-3.77 51.22 51.22 0 0 1-10.3-6.68l8.5-13.15a37.93 37.93 0 0 0 11.9 6.53 42.67 42.67 0 0 0 13.9 2.3q8.22 0 12.76-2.8a8.8 8.8 0 0 0 4.54-7.87v-.06a7.75 7.75 0 0 0-2-5.64 12 12 0 0 0-5.3-3.07 64.55 64.55 0 0 0-8.34-1.8 1.1 1.1 0 0 0-.34-.05 1.05 1.05 0 0 1-.33-.06l-1.36-.2a82.72 82.72 0 0 1-14.84-3.52 21.8 21.8 0 0 1-10-7.42q-4.1-5.3-4.1-15v-.06a27.12 27.12 0 0 1 3.86-14.78 24.34 24.34 0 0 1 11.22-9.35Q334.1 0 344.53 0a45.6 45.6 0 0 1 9.78 1.1 53.46 53.46 0 0 1 9.8 3.2 55.07 55.07 0 0 1 9.07 5l-8.55 13.36A33.7 33.7 0 0 0 355.3 18a32.54 32.54 0 0 0-10.77-2q-7.72 0-12 2.55a7.94 7.94 0 0 0-4.23 7.14v.05a8.3 8.3 0 0 0 2.2 6.1 13.13 13.13 0 0 0 5.5 3.35 86.27 86.27 0 0 0 9.13 2.2l.5.1.48.1c.26 0 .5.08.72.14a6.8 6.8 0 0 0 .7.15 75.25 75.25 0 0 1 14.14 4 22 22 0 0 1 9.47 7.6q3.8 5.24 3.8 14.3v.2a26 26 0 0 1-4 14.6 24.88 24.88 0 0 1-11.62 9.25Q351.7 91 341 91zM212 17.1L222.77.93H163.05v89.15h59.77V73.9h-42.96v-20H212V37.7h-32.16V17.1H212zM133.15 50.9a22.28 22.28 0 0 0 8.67-9.36 30.47 30.47 0 0 0 3.07-14 30.5 30.5 0 0 0-3.08-14 22.34 22.34 0 0 0-8.64-9.35A24.87 24.87 0 0 0 120.24.85H81.18v89.2H98V54.2h10.2l20.1 35.87h20.35L127.3 53.32a23.1 23.1 0 0 0 5.85-2.43zM98 17.04h20.9a8.18 8.18 0 0 1 4.6 1.28 8.34 8.34 0 0 1 3 3.68 13.33 13.33 0 0 1 1.1 5.53 14 14 0 0 1-1.15 5.52 8.34 8.34 0 0 1-3 3.68A8.08 8.08 0 0 1 118.9 38H98zM48.53 4.66Q40.66.92 29.5.92H0v89.15h29.43q11.46 0 19.38-4a27 27 0 0 0 11.87-11.14 34.26 34.26 0 0 0 4-16.8V32.86q0-10.1-4.1-17.3a26.52 26.52 0 0 0-12.04-10.9zm-1.32 54q0 7.3-4.52 11.28t-12.82 4H16.8V17.1h13.06q8.28 0 12.82 4t4.53 11.3z"/><circle cx="65.59" cy="134.32" r="14.94" fill="#002850"/><circle cx="160" cy="134.18" r="14.94" fill="#002850"/><path fill="#002850" d="M205.44 320.2V160.82H282s42.52.46 42.52 45.33-42.05 46.56-42.05 46.56H256l.36-18.2h12.18l9.3-.08c9.67-1 24.74-6.1 24.74-27.52 0-31.54-32.67-27.6-32.67-27.6h-42.8v140.8zM99.48 160.54L86.75 179.9l-15.08.1v77.16c0 36.54 16.2 52 38 52 24.2 0 39.68-16 39.68-52v-96.53h21.3v95.08c0 50.1-26.38 70.66-61.7 70.66-33.4 0-58.56-19.1-58.56-69.68v-96.05z"/></svg>