<svg xmlns="http://www.w3.org/2000/svg" width="203.85" height="278.14"><path d="M176.52 259.56H27.68c-.13 2.82.14 5.57-.45 8.12a13.64 13.64 0 0 1-16.74 10 13.92 13.92 0 0 1-10-17c.3-1.33-.1-2.86-.2-4.3s-.25-2.68-.25-4Q0 133.88 0 15.46c0-4.7 1.53-6.2 6.24-6.2H27.8c0-1.62-.06-3.12 0-4.6a4.62 4.62 0 0 1 9.24-.1c.1 1.43 0 2.88 0 4.5h9.17c.5-3.6-1.14-9 4.86-8.9 5.75.08 4.24 5.26 4.65 9h69.37V4.98C125.2 2 127.07 0 129.7 0s4.52 1.92 4.65 4.85c.07 1.34 0 2.68 0 4.4h63.16c4.95 0 6.35 1.42 6.35 6.4q0 118.84-.1 237.7c0 3.52-.28 7 0 10.6.4 5.7-2.5 10.06-7.6 12.6a13 13 0 0 1-14.46-1.3c-4.56-3.45-6.3-8.14-5.33-13.8.08-.47.17-.94.24-1.4a2.36 2.36 0 0 0-.07-.5zm-9.74-117.88c0 5.17-1.36 6.56-6.44 6.56H99c-4.87 0-6.3-1.46-6.3-6.42V88H80.1c-4.38 0-5.93-1.55-5.93-5.92V47.92c0-4.78 1.44-6.24 6.18-6.24h44.6V18.75h-69.2v18.3h3.56c3.95.07 5.6 1.73 5.6 5.72v86.85a23.2 23.2 0 0 1-20.25 23.1c-4.5.64-5.94-.12-7.65-3.62-3.8 1.24-7.46 2.8-11.27 3.57-5.1 1-7.17-1-7.17-6.2V42.82c0-4.1 1.67-5.75 5.8-5.77h3.33V18.7H9.46v203.43h14.37a14.38 14.38 0 0 1 2.75-13.68c-4.6-6.83-4.6-11.8 0-18.5-.46-.7-.86-1.23-1.2-1.8-2.8-4.55-3.14-9.28-.6-14a13 13 0 0 1 12-7.33q23.44-.13 46.9 0a13.63 13.63 0 0 1 13.17 10.6c1.24 4.77-.37 8.86-3 12.6 4.58 6.63 4.58 10.52.08 18.67a14.08 14.08 0 0 1 2.68 13.55h10.6a14.5 14.5 0 0 1 2.8-13.8c-4.6-6.65-4.6-10.9-.1-18.66-.4-.6-.85-1.23-1.24-1.88a13.75 13.75 0 0 1 11.5-21.1c15.62-.14 31.26-.1 46.9 0a13.65 13.65 0 0 1 13.2 10.6c1.22 4.77-.4 8.86-3 12.6 4.7 6.3 4.47 12.44-.07 18.57 3.44 4 4.2 8.6 2.86 13.62h14.32V18.77h-59.9V41.7h44.73c4.5 0 6.06 1.53 6.06 6.07v34.17c0 4.5-1.56 6.08-6.06 6.08h-12.47m-9.27 50.82v-54c0-4.55 1.54-6.1 6-6.1h12.28V51.13h-27.4c0 .72-.1 1.28-.1 1.84-.07 4.82.33 9.7-.26 14.45a18.33 18.33 0 0 1-19.8 15.97 18.6 18.6 0 0 1-17-18.66V51.17h-27.6v27.6h11.8c5.13 0 6.53 1.4 6.53 6.5v53.6zM9.4 250h184.95v-18.23H9.4zM28 142.4c5.53-1.6 9.1-6.77 9.1-13.07v-80.1c0-.9-.08-1.84-.13-2.77H28zm18.52.15c5.9-2.18 9.12-7 9.12-13.42v-80.5c0-.72-.13-1.45-.2-2.16h-8.97zM60.38 176H38.13c-3.58 0-5.73 1.8-5.68 4.7s2.1 4.54 5.53 4.54h44.5c3.46 0 5.48-1.72 5.53-4.55s-2.05-4.7-5.64-4.7zm83.53 0c-7.5 0-15-.06-22.5.05-1.36 0-3.25.36-3.9 1.27a7.06 7.06 0 0 0-1.2 4.9c.44 2.34 2.6 3.05 5 3.05h44.5c3.6 0 5.73-1.8 5.67-4.7s-2.14-4.54-5.8-4.55q-10.9-.02-21.74-.02zm-83.35 18.57H38.3c-3.7 0-5.8 1.65-5.84 4.53s2.08 4.7 5.67 4.72h44.2c3.62 0 5.74-1.78 5.7-4.68s-2.12-4.56-5.8-4.57c-7.22-.02-14.46 0-21.7 0zm83.17 9.26h22.26c3.37 0 5.46-1.83 5.46-4.63s-2.05-4.6-5.46-4.6h-44.5c-3.58 0-5.7 1.86-5.6 4.78s2.16 4.46 5.6 4.47zm-83.77 18.53H82.5c3.42 0 5.5-1.73 5.54-4.52s-2.06-4.72-5.63-4.73H38.15c-3.62 0-5.73 1.8-5.7 4.7s2.1 4.58 5.8 4.6zm83.7-9.26h-22c-3.68 0-5.77 1.66-5.8 4.56s2.08 4.7 5.67 4.7h44.2c3.6 0 5.72-1.8 5.67-4.7s-2.17-4.55-5.83-4.56zm-23.16-162v2.47c0 4-.16 8.1.1 12.15a9.1 9.1 0 0 0 8.77 8.4c4.7.18 9.15-3.23 9.5-7.92.34-5 .07-10 .07-15.1zM37.2 36.83h9V18.7h-9zm-18.65 227.3a4.62 4.62 0 1 0-4.6 4.54 4.68 4.68 0 0 0 4.6-4.55zm176 0a4.62 4.62 0 1 0-4.6 4.56 4.7 4.7 0 0 0 4.64-4.6z"/><path fill="#4599cb" stroke="#4599cb" stroke-width=".5" stroke-miterlimit="10" d="M157.5 138.84h-55.57V85.27c0-5.1-1.4-6.5-6.52-6.5H83.65v-27.6h27.57V64.7a18.6 18.6 0 0 0 17 18.66A18.33 18.33 0 0 0 148 67.4c.6-4.74.2-9.62.25-14.44 0-.56.06-1.12.1-1.84h27.46v27.63h-12.23c-4.52 0-6 1.54-6 6.1v50.93z"/><path fill="#fff" d="M9.4 250v-18.23h184.95V250z"/><path fill="#449140" stroke="#449140" stroke-width=".5" stroke-miterlimit="10" d="M28 142.4V46.47h9c0 .93.14 1.86.14 2.78v80.1c-.08 6.3-3.66 11.47-9.14 13.07z"/><path fill="#ba4e46" stroke="#ba4e46" stroke-width=".5" stroke-miterlimit="10" d="M46.47 142.55V46.47h8.92c.04.7.2 1.44.2 2.17v80.5c0 6.4-3.26 11.23-9.15 13.4z"/><path fill="#8b5690" stroke="#8b5690" stroke-width=".5" stroke-miterlimit="10" d="M60.38 176h22c3.6 0 5.72 1.8 5.67 4.7s-2.07 4.54-5.53 4.54h-44.5c-3.44 0-5.5-1.73-5.53-4.54s2.1-4.7 5.65-4.7h22.2z"/><path fill="#969696" stroke="#969696" stroke-width=".5" stroke-miterlimit="10" d="M143.9 176h21.7c3.66 0 5.74 1.67 5.8 4.56s-2.08 4.68-5.67 4.7h-44.5c-2.36 0-4.5-.72-5-3.07a7.06 7.06 0 0 1 1.2-4.9c.65-.9 2.54-1.27 3.9-1.3 7.55-.02 15.07-.02 22.58-.02z"/><path fill="#fff" d="M60.53 194.57H82.2c3.7 0 5.8 1.67 5.84 4.57s-2.08 4.68-5.7 4.68h-44.2c-3.6 0-5.7-1.8-5.67-4.72s2.14-4.53 5.83-4.53h22.24z"/><path fill="#9f1420" stroke="#9f1420" stroke-width=".5" stroke-miterlimit="10" d="M143.7 203.83h-22.25c-3.45 0-5.5-1.68-5.6-4.47s2-4.78 5.6-4.78h44.5c3.4 0 5.45 1.8 5.46 4.6s-2.06 4.62-5.43 4.63c-7.4.07-14.83.05-22.25.05z"/><path fill="#3e4b50" stroke="#3e4b50" stroke-width=".5" stroke-miterlimit="10" d="M59.92 222.36H38.24c-3.68 0-5.76-1.7-5.8-4.6s2.1-4.66 5.7-4.66h44.23c3.57 0 5.7 1.82 5.64 4.73s-2.1 4.5-5.52 4.52H59.94z"/><path fill="#e2c135" stroke="#e2c135" stroke-width=".5" stroke-miterlimit="10" d="M143.62 213.1h22c3.66 0 5.78 1.7 5.82 4.55s-2.07 4.7-5.67 4.7h-44.25c-3.6 0-5.73-1.8-5.68-4.7s2.13-4.54 5.8-4.55z"/><path fill="#fff" d="M18.53 264.12a4.62 4.62 0 1 1-4.53-4.7 4.64 4.64 0 0 1 4.53 4.7zm176.04-.02a4.62 4.62 0 1 1-4.5-4.67 4.67 4.67 0 0 1 4.5 4.68z"/></svg>