<svg xmlns="http://www.w3.org/2000/svg" width="24" height="17.97"><defs><style>.cls-1{fill:#7a1a1d}.cls-2{fill:#fff}</style></defs><g class="cls-2"><path id="rue" d="M13.48 14.97a1.5 1.5 0 1 0 1.5 1.5 1.5 1.5 0 0 0-1.5-1.5zm-3.5 1.5a1.5 1.5 0 1 1-1.5-1.5 1.5 1.5 0 0 1 1.5 1.5z"/><path id="cart" d="M23.26 2h-1.93l-3.47 12H4.62L0 3h2.17l3.78 9h10.42L19.8 0H24"/></g><path id="arrow" d="M14.3 4.5l-1.1-1.1-2.1 2.1-2.12-2.12L7.84 4.5l2.1 2.12L7.9 8.64l1.2 1.12 1.96-2L13.1 9.8l1.1-1.2-1.98-1.98 2.1-2.1z" class="cls-1"/></svg>