<svg xmlns="http://www.w3.org/2000/svg" width="520.54" height="478.96"><defs><style>.cls-1{fill:#080409}.cls-2{fill:#fff}.cls-3{fill:#45a6df}</style></defs><g id="cash"><path d="M488.38 239.04l-125.4 47.88-190.04-154.74s-21.42-10.4-18.14 7.72l197 160.72s6.3 5.85 18.65 2 134.15-50.94 134.15-50.94 6.72-13.73-16.22-12.64zm5.77-37.7l-125.4 47.9-190-154.77s-21.43-10.38-18.17 7.74l197 160.74s6.3 5.85 18.65 2S510.4 214 510.4 214s6.7-13.74-16.25-12.65zm17.13-47.9S353.48 25.3 337.8 11.38 298.92.18 298.92.18s-93.94 36.8-117.64 44.66-8.68 25.83-8.68 25.83L350.8 215.6c23.34 15.53 43.63 7.45 43.63 7.45l114.67-43.4c24.4-10.18 2.18-26.2 2.18-26.2zm-111.3 50.17c-21.7-23.5-49.4-10.1-49.4-10.1L213.03 78.7c27.67-8.95 4.26-28.28 4.26-28.28l69.1-26.34c26.56 21.22 48.06 7.82 48.06 7.82l140.07 114.2c-34.67 9.53-4.37 29-4.37 29zM305.04 79.2s55.13-17.67 95.12 22.72c0 0 24.72 32.48-21.1 45.46s-84.77-14.83-84.77-14.83-15.34-10.78-15.18-24.46 3.54-18.58 25.9-28.9z" class="cls-1"/><path d="M360.56 113.93a40.84 40.84 0 0 0-7.28-12.82c-5.32-6.35-10.66-8.4-13.75-5.82-3.64 3-.37 9.83 2.83 17.06 3.44 7.8 6.65 16.08 1.08 20.74s-14.1 1.23-21.56-6.75l-5.2 4.36-4.44-5.3 5.27-4.4a49.32 49.32 0 0 1-6.82-12.4l4.4-3.7c1.15 4.78 4.4 10.93 8.64 16 5.33 6.38 10.65 8.84 14.25 5.83s.12-10.14-3.3-17.83-6.25-15.5-.83-20c5.57-4.67 14.26-.86 21.6 7.1l5.26-4.4 4.42 5.28-5.36 4.5a43.65 43.65 0 0 1 5.12 9z" class="cls-2"/></g><path id="tij" d="M204.3 363.53c-3.77-1.85-6.62-8.9-6.62-8.9l1.78-47.65 115.15-30.8-49.7-38.77-49.7 12.94 5.9-165.28c-47.6-.73-53.22 45.32-53.22 45.32L164 278.58l-42.2 11.9c-11.77 3.74-19-9-19-9-16-21.95-47.23-19.7-47.23-19.7s-33.78 1.67-50.22 36 10 64.5 10 64.5 9.9 12.3 33.9 17.4 40.46-5.4 53.42-16.4 15.65-32.7 17.17-36.55 6.9-7.92 6.9-7.92l42-10.9s.2 44.95-2.3 51.73-26.64 14.56-26.64 14.56-32.35 35.92-11.5 72 57.1 32.67 57.1 32.67c41.68-7.84 51-35.1 51-35.1 16.27-65.42-28.3-78.38-32.1-80.23zM55.9 344.96a24.34 24.34 0 1 1 26.44-17.16 24.34 24.34 0 0 1-26.44 17.16zm126.74-71.6a12.18 12.18 0 1 1 9.38 14.46 12.18 12.18 0 0 1-9.38-14.45zm-4.92 168.3a24.34 24.34 0 1 1 26.44-17.16 24.34 24.34 0 0 1-26.44 17.16z" class="cls-3"/></svg>