<svg xmlns="http://www.w3.org/2000/svg" width="410.65" height="410.19" viewBox="0 0 307.99 307.64"><path fill="#c64d47" stroke="#c64d47" stroke-miterlimit="10" d="M201.88 8.3c21.75 6.64 40.45 18.48 57.07 33.72 24.64 22.6 39.14 50.9 45.88 83.4a15.8 15.8 0 0 1 .15 2.47c-1.1 6.26-5.8 10.33-9.46 15-9.8 12.32-21.1 23-34.75 31.05-18.2 10.78-37.54 12.78-57.7 7.53-16-4.2-30.3-11.9-43.27-22.12-2-1.54-4-3.08-5-5.44a1.92 1.92 0 0 1 .27-1.5c10.34-5 20.7-10 29.64-17.33 17.65-14.46 30.9-31.84 34.4-55 2.77-18.1-.87-35.46-8.32-52a164.3 164.3 0 0 0-7.73-15.1c-.87-1.45-1.94-2.85-1.17-4.67z"/><path fill="#3283c3" stroke="#3283c3" stroke-miterlimit="10" d="M253.83 269.83c-22.6 19.34-48.16 32.08-78 35.9a157.12 157.12 0 0 1-65.06-4.83c-1.6-.47-3.12-1.1-4.68-1.66-4.37-3.33-6.85-8.1-9.4-12.72-10.1-18.4-15.42-37.9-12.24-59 3.27-21.76 14.85-38.88 31-53.2 8.8-7.8 18.9-13.6 29.54-18.45 2.7-1.22 5.33-2.83 8.48-2.65a1.75 1.75 0 0 1 1.12 1.1c1.3 3.38-.4 6.55-.7 9.8a84.7 84.7 0 0 0-.06 20 135.75 135.75 0 0 0 8.76 33.7c9.67 23.18 27.35 37.06 50.8 44.4 11.66 3.64 23.65 5.32 35.78 6.23 1.7.1 3.43-.12 4.65 1.38z"/><path fill="#449a41" stroke="#449a41" stroke-miterlimit="10" d="M154.25 153.5c-21.2 7.57-39.2 19.56-52.73 37.7-20.1 27-21.2 55.9-8 86.08 3.4 7.8 8 14.86 12.6 22-41.5-14.34-72.16-41-90.93-80.85-5.76-12.2-10.4-24.83-12.1-38.34.5-1.4.5-2.9 1.34-4.24 11.3-17.63 25.14-32.72 43.9-42.6a74.08 74.08 0 0 1 48.87-7.36c19.38 3.48 36.7 11.53 52.9 22.4 1.95 1.23 4.04 2.44 4.14 5.2z"/><path fill="#eeca2b" stroke="#eeca2b" stroke-miterlimit="10" d="M154.25 153.5c-9.46-8.64-20.7-14.34-32.4-19.1-24.83-10.1-49.78-12.85-74.42.7-15.3 8.43-27.2 20.64-37.37 34.64-2.42 3.36-4.67 6.84-7 10.26-3.3-12.76-2.9-25.8-1.83-38.68 3.35-40.65 20.8-74.5 50.7-102 1-.9 2.1-1.6 3.15-2.4 9.78-1.56 19.23.67 28.64 2.7 19 4.1 36.63 11.13 50.33 25.7a71.7 71.7 0 0 1 15.24 25c6.75 18.73 9.64 38 7.33 57.9a9.84 9.84 0 0 1-1.4 4.73 2 2 0 0 0-.08.65l-.5.2a.87.87 0 0 0-.4-.3z"/><path fill="#db962f" stroke="#db962f" stroke-miterlimit="10" d="M155.27 152.94c.58-7.6 1.24-15.22.73-22.83-1.15-17.3-4.27-34.2-12.66-49.66-9.52-17.58-24.67-28.3-43.15-34.78a135.73 135.73 0 0 0-41.8-7.9c-1.16 0-2.36.14-3.3-.8a147 147 0 0 1 64.75-32.5 150.53 150.53 0 0 1 82 3.9c6.8 12 13.17 24.2 16.5 37.8 7.53 30.7.07 57.15-21.8 79.77-11.7 12.1-25.23 21.5-41.3 27.02z"/><path fill="#935999" stroke="#935999" stroke-miterlimit="10" d="M154.7 153.8a.7.7 0 0 1 .5-.2c21 18.23 44.46 30.18 73.08 29.2 16-.56 29.48-7.4 41.92-16.75 14-10.52 25.08-23.7 34.78-38.16 3.2 12.4 2.76 25.1 1.84 37.66-2.93 40.17-19.83 73.72-49.1 101.17-1.2 1.13-2.6 2.06-3.9 3.08a152.4 152.4 0 0 1-47.36-8.66c-27.78-10.05-42.9-30.8-50.3-58.27-1.6-5.93-3.1-11.92-3.1-18.14v-21a31.36 31.36 0 0 1 1.63-9.94z"/><path fill="#935999" d="M153.06 163.74a46.34 46.34 0 0 1 0 21 52 52 0 0 1 0-21z"/></svg>